<?xml version="1.0" encoding="utf-8"?>
<svg xmlns="http://www.w3.org/2000/svg" width="456" height="456" viewBox="0 0 456 456" version="1.1">
  <g transform="translate(48.000000,56.228571) scale(0.68571429) translate(-138.000000,-104.000000)">
    <path fill="#F99512" opacity="1.000000" stroke="none" d=" M208.696777,376.925140   C207.435364,379.056274 206.173950,381.187408 204.421265,383.643005   C203.664368,384.383148 203.398773,384.798859 203.133179,385.214539   C198.064713,395.736816 192.996262,406.259094 187.798645,417.049500   C185.729446,412.274200 183.223984,406.980865 181.111252,401.535156   C169.462341,371.509460 160.324371,340.734039 155.579544,308.852020   C149.256393,266.364716 149.373566,223.988495 159.916260,182.021500   C160.442703,179.925888 160.758270,177.777328 161.470703,175.093567   C164.449692,172.910736 167.057465,171.150101 169.824478,169.691513   C177.110138,165.850983 184.992188,167.211411 192.718048,167.282700   C211.601105,183.582626 230.320358,200.077499 249.416656,216.123688   C266.096924,230.139709 283.462036,243.345169 300.038849,257.478424   C314.020813,269.399323 326.039734,283.193329 335.796875,300.101868   C304.239136,308.020630 275.269257,320.846069 248.134048,338.617401   C246.228210,337.242004 244.724396,336.175690 243.464813,334.873199   C236.650375,327.826508 239.215836,326.696960 246.712326,324.159821   C249.953186,323.062988 253.600693,323.233826 256.972565,322.441772   C261.492645,321.380005 262.056702,319.562042 259.350555,315.825073   C256.730774,312.207397 254.247070,308.471680 251.392548,305.047089   C242.119873,293.922577 232.475632,283.186615 219.258850,276.462921   C216.586929,275.103638 214.062210,273.455017 210.093826,271.135712   C213.585449,270.614838 215.626663,270.012756 217.654449,270.055084   C233.377289,270.383057 247.002182,277.630737 261.019104,283.497223   C265.550262,285.393616 269.831940,287.886078 274.227722,290.105865   C274.560059,289.641998 274.892426,289.178131 275.224762,288.714294   C273.856781,286.333801 272.687073,283.810303 271.089661,281.595276   C257.497192,262.747498 243.768311,243.962982 226.556946,228.182022   C220.016846,222.185471 212.973160,216.493408 205.389343,211.946152   C197.185654,207.027191 190.750031,209.506622 188.118637,218.781982   C185.566299,227.778564 183.710251,237.186005 183.220383,246.500931   C182.594299,258.405914 183.414398,270.411377 184.054443,282.349762   C184.461334,289.939453 185.127090,297.597443 186.643082,305.027649   C189.420792,318.641815 192.294617,332.296844 196.302948,345.580414   C199.537369,356.299286 204.500549,366.496490 208.696777,376.925140  z"/>
    

    <path fill="#F99512" opacity="1.000000" stroke="none" d=" M640.519653,174.124771   C643.049622,189.044678 646.184509,203.892380 647.975830,218.900452   C651.103760,245.106934 650.563049,271.372345 647.382507,297.595886   C644.530090,321.113983 639.710571,344.245514 632.579895,366.776306   C627.319885,383.396179 620.529907,399.532288 614.386047,415.870575   C614.109253,416.606506 613.480347,417.210052 612.297302,418.902710   C609.768311,403.270630 602.376587,390.870087 593.904236,378.260254   C594.309814,375.931366 594.591187,374.287109 595.159119,372.748596   C598.524048,363.632294 602.294739,354.649536 605.263062,345.407959   C607.893433,337.218567 610.150635,328.840576 611.690308,320.385223   C614.178528,306.720551 616.614319,292.982025 617.807312,279.165497   C618.815063,267.494293 618.632996,255.626831 617.834778,243.924149   C617.243408,235.252380 615.384766,226.548264 613.050537,218.147552   C610.715332,209.742950 604.638367,207.684296 596.697021,211.645096   C580.842285,219.552826 569.489807,232.694473 558.278259,245.751221   C548.786682,256.804871 540.201843,268.643158 531.353882,280.239594   C528.999146,283.325775 527.152344,286.799500 525.072327,290.095306   C535.536682,286.380249 544.893860,281.716431 554.568787,277.847076   C562.218262,274.787750 570.155273,272.269745 578.169006,270.376160   C582.016968,269.466888 586.337341,270.556519 590.443787,270.740906   C590.453979,271.278656 590.464111,271.816376 590.474304,272.354126   C588.233154,273.279541 585.847839,273.958160 583.773560,275.169373   C566.973328,284.979401 553.699341,298.522461 542.763794,314.454773   C539.368225,319.401794 540.597595,321.788910 546.513611,322.928345   C550.718323,323.738220 554.892883,324.761047 559.016479,325.918396   C562.757141,326.968170 562.630859,329.238007 560.536621,331.935364   C558.613220,334.412598 556.759399,336.943787 554.874939,339.451202   C545.858765,334.162231 536.999268,328.581055 527.793274,323.646240   C509.700012,313.947540 490.663879,306.542053 470.764709,301.405884   C469.353058,301.041504 467.993591,300.474915 465.428314,299.598846   C470.462677,292.734131 474.887024,286.215729 479.802582,280.091614   C493.330231,263.238007 510.029694,249.722992 526.754028,236.275513   C554.602234,213.883682 583.344971,192.558853 609.470459,167.125763   C618.343384,166.966003 626.565491,166.387650 634.033813,170.751511   C636.135254,171.979431 638.354492,173.005905 640.519653,174.124771  z"/>
    

    <path fill="#FEB34A" opacity="1.000000" stroke="none" d=" M554.929565,339.763031   C556.759399,336.943787 558.613220,334.412598 560.536621,331.935364   C562.630859,329.238007 562.757141,326.968170 559.016479,325.918396   C554.892883,324.761047 550.718323,323.738220 546.513611,322.928345   C540.597595,321.788910 539.368225,319.401794 542.763794,314.454773   C553.699341,298.522461 566.973328,284.979401 583.773560,275.169373   C585.847839,273.958160 588.233154,273.279541 590.474304,272.354126   C590.464111,271.816376 590.453979,271.278656 590.443787,270.740906   C586.337341,270.556519 582.016968,269.466888 578.169006,270.376160   C570.155273,272.269745 562.218262,274.787750 554.568787,277.847076   C544.893860,281.716431 535.536682,286.380249 525.072327,290.095306   C527.152344,286.799500 528.999146,283.325775 531.353882,280.239594   C540.201843,268.643158 548.786682,256.804871 558.278259,245.751221   C569.489807,232.694473 580.842285,219.552826 596.697021,211.645096   C604.638367,207.684296 610.715332,209.742950 613.050537,218.147552   C615.384766,226.548264 617.243408,235.252380 617.834778,243.924149   C618.632996,255.626831 618.815063,267.494293 617.807312,279.165497   C616.614319,292.982025 614.178528,306.720551 611.690308,320.385223   C610.150635,328.840576 607.893433,337.218567 605.263062,345.407959   C602.294739,354.649536 598.524048,363.632294 595.159119,372.748596   C594.591187,374.287109 594.309814,375.931366 593.787109,377.938354   C582.463745,363.889618 569.236816,351.463806 554.929565,339.763031  z"/>
    

    <path fill="#FEB44A" opacity="1.000000" stroke="none" d=" M209.014252,376.791077   C204.500549,366.496490 199.537369,356.299286 196.302948,345.580414   C192.294617,332.296844 189.420792,318.641815 186.643082,305.027649   C185.127090,297.597443 184.461334,289.939453 184.054443,282.349762   C183.414398,270.411377 182.594299,258.405914 183.220383,246.500931   C183.710251,237.186005 185.566299,227.778564 188.118637,218.781982   C190.750031,209.506622 197.185654,207.027191 205.389343,211.946152   C212.973160,216.493408 220.016846,222.185471 226.556946,228.182022   C243.768311,243.962982 257.497192,262.747498 271.089661,281.595276   C272.687073,283.810303 273.856781,286.333801 275.224762,288.714294   C274.892426,289.178131 274.560059,289.641998 274.227722,290.105865   C269.831940,287.886078 265.550262,285.393616 261.019104,283.497223   C247.002182,277.630737 233.377289,270.383057 217.654449,270.055084   C215.626663,270.012756 213.585449,270.614838 210.093826,271.135712   C214.062210,273.455017 216.586929,275.103638 219.258850,276.462921   C232.475632,283.186615 242.119873,293.922577 251.392548,305.047089   C254.247070,308.471680 256.730774,312.207397 259.350555,315.825073   C262.056702,319.562042 261.492645,321.380005 256.972565,322.441772   C253.600693,323.233826 249.953186,323.062988 246.712326,324.159821   C239.215836,326.696960 236.650375,327.826508 243.464813,334.873199   C244.724396,336.175690 246.228210,337.242004 247.798676,338.692749   C241.247177,344.832428 234.240646,350.414276 227.862259,356.639679   C221.363617,362.982452 215.482956,369.958344 209.014252,376.791077  z"/>
    

    <path fill="#EF8C0C" opacity="1.000000" stroke="none" d=" M394.104156,560.000000   C394.089447,567.494568 394.163849,574.490784 394.036469,581.483276   C393.917480,588.015747 390.244110,591.815125 384.385498,591.760742   C377.667572,591.698364 374.018463,587.957153 374.019012,581.090027   C374.025269,504.482239 374.035919,427.874481 374.047302,351.266693   C374.047516,349.767883 374.046204,348.268402 374.088196,346.770416   C374.268677,340.327728 378.113220,336.737610 384.647766,336.890076   C390.598145,337.028900 394.455109,341.023285 394.418671,347.175812   C394.382202,353.333252 394.123840,359.489929 394.121552,365.646973   C394.097748,430.264648 394.105896,494.882324 394.104156,560.000000  z"/>
    

    <path fill="#F08D0D" opacity="1.000000" stroke="none" d=" M438.007629,465.000000   C437.996246,494.161469 438.032562,522.823059 437.943634,551.484253   C437.919952,559.122803 433.420929,562.916321 426.094391,561.911560   C421.284973,561.252014 418.288757,558.152466 417.967438,553.269775   C417.803650,550.780823 417.924591,548.272766 417.924072,545.773376   C417.912689,491.116211 417.899536,436.459076 417.894501,381.801910   C417.893677,372.812988 421.017181,368.908051 428.131866,368.930603   C434.247345,368.949982 437.904205,372.557831 437.921997,379.016296   C438.000519,407.510742 437.987946,436.005402 438.007629,465.000000  z"/>
    

    <path fill="#F08D0C" opacity="1.000000" stroke="none" d=" M329.936707,491.000000   C329.929413,458.863770 329.984802,427.227325 329.853333,395.591583   C329.831818,390.413910 332.348694,387.466187 336.743896,385.777588   C341.132690,384.091461 345.119629,385.244110 347.898376,388.908905   C349.192993,390.616302 350.057861,393.119995 350.063049,395.265320   C350.174316,441.054138 350.165680,486.843353 350.092651,532.632324   C350.082031,539.303955 346.281219,542.937378 339.919495,542.951660   C333.760406,542.965454 329.975830,539.055725 329.953552,532.460144   C329.907410,518.806946 329.938019,505.153412 329.936707,491.000000  z"/>
    

    <path fill="#3F362F" opacity="1.000000" stroke="none" d=" M192.609436,167.043411   C184.992188,167.211411 177.110138,165.850983 169.824478,169.691513   C167.057465,171.150101 164.449692,172.910736 161.477783,174.676270   C148.870911,158.488770 146.160370,130.317261 155.680206,117.031029   C156.319855,121.075577 156.457977,125.229340 157.721252,129.006836   C158.964890,132.725632 161.349182,136.062973 163.232986,139.567673   C163.634491,139.378250 164.035980,139.188843 164.437485,138.999420   C165.201004,133.534180 165.964523,128.068954 166.728043,122.603722   C169.040482,141.241638 179.750961,154.602524 192.609436,167.043411  z"/>
    

    <path fill="#413931" opacity="1.000000" stroke="none" d=" M640.832275,173.924744   C638.354492,173.005905 636.135254,171.979431 634.033813,170.751511   C626.565491,166.387650 618.343384,166.966003 609.758362,166.922302   C614.194397,161.186844 619.366089,155.747162 623.871948,149.802841   C629.903076,141.846375 633.255920,132.691696 633.688538,122.532173   C634.098145,122.533905 634.507690,122.535645 634.917297,122.537384   C635.728333,127.918625 636.539368,133.299866 637.413147,139.096939   C645.028320,133.517319 644.650635,125.163307 645.448669,117.113869   C654.992798,128.308640 652.600525,158.240311 640.832275,173.924744  z"/>
    

    <path fill="#ED8C0F" opacity="1.000000" stroke="none" d=" M503.975494,459.087036   C505.850250,452.376678 509.498993,449.651794 515.064270,450.430603   C521.175110,451.285675 524.031677,454.772949 524.037476,461.505005   C524.045349,470.649170 524.105164,479.795074 523.951294,488.937012   C523.830933,496.085999 520.208496,499.934937 514.003540,499.940796   C507.790710,499.946716 504.023956,495.897675 503.967072,488.886749   C503.887604,479.086639 503.946167,469.285431 503.975494,459.087036  z"/>
    

    <path fill="#EC8B12" opacity="1.000000" stroke="none" d=" M292.544983,452.784302   C299.650055,452.813293 304.338928,456.125092 305.155914,461.357758   C306.048065,467.071747 303.079376,472.445282 298.042053,474.234406   C293.188904,475.958069 287.412476,473.828339 284.575134,469.269226   C280.525452,462.762085 284.225952,454.756287 292.544983,452.784302  z"/>
    

    <path fill="#FEB44A" opacity="1.000000" stroke="none" d=" M203.409454,385.165710   C203.398773,384.798859 203.664368,384.383148 204.172440,383.886139   C204.171844,384.242188 203.928787,384.679535 203.409454,385.165710  z"/>
    

    <path fill="#F38D0B" opacity="1.000000" stroke="none" d=" M481.233582,521.125916   C479.965302,527.132751 475.934967,530.138550 469.785004,529.664246   C465.141785,529.306152 461.806885,525.023743 461.805145,519.350403   C461.795197,486.915100 461.788605,454.479797 461.798431,422.044495   C461.800446,415.331146 465.287964,411.786407 471.785339,411.787048   C477.462341,411.787598 481.261200,415.848694 481.264954,422.126038   C481.284180,454.397736 481.264038,486.669403 481.185791,519.712646   C481.153839,520.698120 481.193695,520.912048 481.233582,521.125916  z"/>
    

  </g>
</svg>
